# xmcd
#
# Track frame offsets: 
#        150
#        15987
#        35167
#        61582
#        80727
#        89385
#        106110
#        124715
#        163312
#
# Disc length: 2452 seconds
#
# Revision: 0
# Processed by: cddbd v1.5.1PL0 Copyright (c) Steve Scherf et al.
# Submitted via: ExactAudioCopy v0.90b4
#
DISCID=69099209
DTITLE=Black Cat Bone - What A Way To Make A Living
DYEAR=1994
DGENRE=Rock
TTITLE0=Devil In Disguise
TTITLE1=Bossaroni Blues
TTITLE2=Bisque Blues
TTITLE3=Bye-Bye Baby
TTITLE4=Branson Boogie
TTITLE5=I Got A Girl
TTITLE6=Maggie Campbell Blues
TTITLE7=Kindhearted Women
TTITLE8=Separation Lamant
EXTD=
EXTT0=
EXTT1=
EXTT2=
EXTT3=
EXTT4=
EXTT5=
EXTT6=
EXTT7=
EXTT8=
PLAYORDER=
